<?xml version="1.0" encoding="UTF-8" standalone="no"?>
<svg
   xmlns:dc="http://purl.org/dc/elements/1.1/"
   xmlns:cc="http://creativecommons.org/ns#"
   xmlns:rdf="http://www.w3.org/1999/02/22-rdf-syntax-ns#"
   xmlns:svg="http://www.w3.org/2000/svg"
   xmlns="http://www.w3.org/2000/svg"
   id="svg134"
   version="1.1"
   viewBox="0 0 43.1786 51.506645"
   height="51.506645mm"
   width="43.1786mm">
  <defs
     id="defs128" />
  <metadata
     id="metadata131">
    <rdf:RDF>
      <cc:Work
         rdf:about="">
        <dc:format>image/svg+xml</dc:format>
        <dc:type
           rdf:resource="http://purl.org/dc/dcmitype/StillImage" />
        <dc:title></dc:title>
      </cc:Work>
    </rdf:RDF>
  </metadata>
  <g
     transform="translate(-45.386499,-11.25475)"
     id="layer1">
    <path
       id="path217"
       d="m 64.203718,62.561708 c -1.0014,-0.19581 -1.17193,-0.98358 -1.17767,-5.44024 -0.009,-7.15136 0.91207,-9.49513 5.83954,-14.85617 5.40508,-5.88066 6.84098,-9.43209 6.85043,-16.94318 l 0.005,-4.14633 2.18464,1.32411 c 2.98035,1.8064 6.92081,5.79379 8.28103,8.37967 1.75382,3.33412 2.36985,5.89265 2.37835,9.87778 0.0138,6.45225 -2.27871,12.18785 -6.62368,16.57192 -3.89397,3.92903 -7.928,5.51697 -13.79099,5.42865 -1.75399,-0.0264 -3.53008,-0.11472 -3.94686,-0.19621 z m -6.65054,-1.61487 c -1.24939,-0.6698 -3.44535,-2.44015 -5.35944,-4.3207 -2.61016,-2.56442 -3.48546,-3.70043 -4.48677,-5.8232 -1.66987,-3.5401 -2.32546,-6.27462 -2.32044,-9.67874 0.0112,-7.61648 3.52123,-13.20973 14.95762,-23.83535 3.50969,-3.26086 6.54,-5.974498 6.73403,-6.030293 0.54123,-0.155637 3.55906,4.499093 4.74898,7.324873 2.30081,5.46392 2.24528,10.22134 -0.17647,15.11836 -0.67167,1.3582 -2.83378,4.61257 -4.80469,7.23195 -1.9709,2.61937 -4.07431,5.79437 -4.67425,7.05555 -1.09059,2.29263 -1.09079,2.29417 -1.05497,8.20209 0.0417,6.87571 0.14188,6.742 -3.5636,4.75546 z"
       style="fill:#ee3338;fill-opacity:1;stroke-width:0.35277778" />
  </g>
</svg>
